# Blender 3.6.5
# www.blender.org
mtllib efcoallight.mtl
o statuslights
v 0.281250 2.923097 2.634907
v 0.281250 3.154067 2.730578
v 0.281250 2.970933 2.519422
v 0.281250 3.201903 2.615093
v 0.718750 2.923097 2.634907
v 0.718750 3.154067 2.730578
v 0.718750 2.970933 2.519422
v 0.718750 3.201903 2.615093
vn -1.0000 -0.0000 -0.0000
vn 1.0000 -0.0000 -0.0000
vn -0.0000 -0.3827 0.9239
vn -0.0000 -0.9239 -0.3827
vn -0.0000 0.9239 0.3827
vt 0.601562 0.148438
vt 0.601562 0.179688
vt 0.617188 0.179688
vt 0.617188 0.148438
vt 0.671875 0.078125
vt 0.671875 0.109375
vt 0.617188 0.109375
vt 0.617188 0.078125
vt 0.671875 0.140625
vt 0.617188 0.140625
vt 0.617188 0.125000
vt 0.671875 0.125000
s 0
usemtl mapping
f 1/1/1 2/2/1 4/3/1 3/4/1
f 7/4/2 8/3/2 6/2/2 5/1/2
f 5/5/3 6/6/3 2/7/3 1/8/3
f 3/9/4 7/10/4 5/11/4 1/12/4
f 8/9/5 4/10/5 2/11/5 6/12/5
